<svg xmlns="http://www.w3.org/2000/svg" xmlns:xlink="http://www.w3.org/1999/xlink" version="1.1" x="0px" y="0px" viewBox="0 0 64 80" style="enable-background:new 0 0 64 64;" xml:space="preserve"><path d="M60,58h-2v2h-4v-2h-2v2h-4v-2h-2v2h-4v-2h-2v2h-4v-2h-2v2h-4v-2h-2v2h-4v-2h-2v2h-4v-2h-2v2h-4v-2h-2v2H4v-6h2v-2H4v-4h2v-2  H4v-4h2v-2H4v-4h2v-2H4v-4h2v-2H4v-4h2v-2H4v-4h2v-2H4v-4h2v-2H4V6h2V4H4V2H2v59c0,0.553,0.448,1,1,1h59v-2h-2V58z"/><path d="M10,44c0,1.654,1.346,3,3,3s3-1.346,3-3s-1.346-3-3-3S10,42.346,10,44z M14,44c0,0.552-0.449,1-1,1s-1-0.448-1-1  s0.449-1,1-1S14,43.448,14,44z"/><path d="M19,33c0-1.654-1.346-3-3-3s-3,1.346-3,3s1.346,3,3,3S19,34.654,19,33z M15,33c0-0.552,0.449-1,1-1s1,0.448,1,1  s-0.449,1-1,1S15,33.552,15,33z"/><path d="M58,15c0-1.654-1.346-3-3-3s-3,1.346-3,3s1.346,3,3,3S58,16.654,58,15z M54,15c0-0.552,0.449-1,1-1s1,0.448,1,1  s-0.449,1-1,1S54,15.552,54,15z"/><path d="M22,25c0,1.654,1.346,3,3,3s3-1.346,3-3s-1.346-3-3-3S22,23.346,22,25z M26,25c0,0.552-0.449,1-1,1s-1-0.448-1-1  s0.449-1,1-1S26,24.448,26,25z"/><path d="M35,42c0,1.654,1.346,3,3,3s3-1.346,3-3s-1.346-3-3-3S35,40.346,35,42z M39,42c0,0.552-0.449,1-1,1s-1-0.448-1-1  s0.449-1,1-1S39,41.448,39,42z"/><path d="M43,32c1.654,0,3-1.346,3-3s-1.346-3-3-3s-3,1.346-3,3S41.346,32,43,32z M43,28c0.551,0,1,0.448,1,1s-0.449,1-1,1  s-1-0.448-1-1S42.449,28,43,28z"/><path d="M38,12c0,1.654,1.346,3,3,3s3-1.346,3-3s-1.346-3-3-3S38,10.346,38,12z M42,12c0,0.552-0.449,1-1,1s-1-0.448-1-1  s0.449-1,1-1S42,11.448,42,12z"/><path d="M61.293,1.293l-1.008,1.008C59.894,2.113,59.462,2,59,2c-1.654,0-3,1.346-3,3c0,0.462,0.113,0.894,0.301,1.285l-2.381,2.381  C53.969,8.451,54,8.23,54,8c0-1.654-1.346-3-3-3s-3,1.346-3,3s1.346,3,3,3c0.23,0,0.451-0.031,0.666-0.081l-4.381,4.381  C46.894,15.113,46.462,15,46,15c-1.654,0-3,1.346-3,3c0,0.462,0.113,0.894,0.301,1.285l-3.339,3.339C39.775,21.149,38.526,20,37,20  c-1.654,0-3,1.346-3,3c0,1.526,1.149,2.775,2.624,2.962l-3.339,3.339C32.894,29.113,32.462,29,32,29c-1.654,0-3,1.346-3,3  c0,0.462,0.114,0.894,0.301,1.285l-3.769,3.768C25.359,37.023,25.182,37,25,37c-1.654,0-3,1.346-3,3  c0,0.182,0.023,0.359,0.054,0.533l-8.768,8.768C12.894,49.113,12.462,49,12,49c-1.654,0-3,1.346-3,3  c0,0.462,0.113,0.894,0.301,1.285l-2.008,2.008l1.414,1.414l2.008-2.008C11.106,54.887,11.538,55,12,55c1.654,0,3-1.346,3-3  c0-0.462-0.113-0.894-0.301-1.285l8.407-8.407C23.625,42.734,24.279,43,25,43c1.654,0,3-1.346,3-3c0-0.722-0.266-1.376-0.693-1.894  l3.407-3.407C31.106,34.886,31.538,35,32,35c1.654,0,3-1.346,3-3c0-0.462-0.113-0.894-0.301-1.285l10.015-10.015  C45.106,20.887,45.538,21,46,21c1.654,0,3-1.346,3-3c0-0.462-0.113-0.894-0.301-1.285l9.015-9.015C58.106,7.887,58.538,8,59,8  c1.654,0,3-1.346,3-3c0-0.462-0.113-0.894-0.301-1.285l1.008-1.008L61.293,1.293z M50,8c0-0.552,0.449-1,1-1s1,0.448,1,1  s-0.449,1-1,1S50,8.552,50,8z M36,23c0-0.552,0.449-1,1-1s1,0.448,1,1s-0.449,1-1,1S36,23.552,36,23z M12,53c-0.551,0-1-0.448-1-1  s0.449-1,1-1s1,0.448,1,1S12.551,53,12,53z M25,41c-0.551,0-1-0.448-1-1s0.449-1,1-1s1,0.448,1,1S25.551,41,25,41z M32,33  c-0.551,0-1-0.448-1-1s0.449-1,1-1s1,0.448,1,1S32.551,33,32,33z M46,19c-0.551,0-1-0.448-1-1s0.449-1,1-1s1,0.448,1,1  S46.551,19,46,19z M59,6c-0.551,0-1-0.448-1-1s0.449-1,1-1s1,0.448,1,1S59.551,6,59,6z"/><text x="0" y="79" fill="#000000" font-size="5px" font-weight="bold" font-family="'Helvetica Neue', Helvetica, Arial-Unicode, Arial, Sans-serif">Created by Becris</text><text x="0" y="84" fill="#000000" font-size="5px" font-weight="bold" font-family="'Helvetica Neue', Helvetica, Arial-Unicode, Arial, Sans-serif">from the Noun Project</text></svg>