<svg xmlns="http://www.w3.org/2000/svg" xmlns:xlink="http://www.w3.org/1999/xlink" version="1.1" x="0px" y="0px" viewBox="7.5 7.5 50 62.5" enable-background="new 7.5 7.5 50 50" xml:space="preserve"><path d="M42.555,25.155c0.002-0.054,0.003-0.109,0.003-0.164c0-3.476-2.828-6.304-6.304-6.304c-1.354,0-2.672,0.439-3.754,1.244  c-1.083-0.805-2.401-1.244-3.754-1.244c-3.476,0-6.304,2.828-6.304,6.304c0,0.055,0.001,0.109,0.003,0.164  c-2.282,1.105-3.737,3.409-3.737,5.965c0,2.659,1.593,5.046,4.011,6.085c-0.184,0.641-0.277,1.295-0.277,1.951  c0,3.946,3.21,7.156,7.156,7.156c1.003,0,1.979-0.209,2.902-0.621c0.921,0.412,1.896,0.621,2.901,0.621  c3.946,0,7.156-3.21,7.156-7.156c0-0.654-0.093-1.309-0.275-1.951c2.417-1.039,4.01-3.426,4.01-6.085  C46.292,28.563,44.837,26.26,42.555,25.155z M41.836,36.29c-0.573-0.98-1.689-1.977-3.378-2.543  c0.077-1.838,0.841-3.101,1.538-3.101c0.276,0,0.5-0.224,0.5-0.5s-0.224-0.5-0.5-0.5c-1.321,0-2.366,1.651-2.521,3.841  c-0.609-0.125-1.26-0.212-1.99-0.212c-0.276,0-0.5,0.224-0.5,0.5s0.224,0.5,0.5,0.5c3.268,0,5.093,1.526,5.663,2.834  c0.017,0.038,0.052,0.058,0.076,0.09c0.216,0.643,0.334,1.3,0.334,1.957c0,3.395-2.762,6.156-6.156,6.156  c-0.824,0-1.624-0.173-2.386-0.497c0.154-2.852,2.302-5.122,4.928-5.122c0.276,0,0.5-0.224,0.5-0.5s-0.224-0.5-0.5-0.5  c-2.432,0-4.524,1.594-5.443,3.867c-0.919-2.273-3.012-3.867-5.444-3.867c-0.276,0-0.5,0.224-0.5,0.5s0.224,0.5,0.5,0.5  c2.626,0,4.775,2.27,4.929,5.121c-0.763,0.324-1.563,0.498-2.387,0.498c-3.395,0-6.156-2.762-6.156-6.156  c0-0.66,0.12-1.317,0.336-1.959c0.024-0.031,0.059-0.051,0.075-0.089c0.569-1.307,2.393-2.833,5.662-2.833  c0.276,0,0.5-0.224,0.5-0.5s-0.224-0.5-0.5-0.5c-0.73,0-1.381,0.087-1.99,0.211c-0.155-2.189-1.2-3.84-2.521-3.84  c-0.276,0-0.5,0.224-0.5,0.5s0.224,0.5,0.5,0.5c0.697,0,1.461,1.263,1.538,3.101c-1.689,0.566-2.804,1.562-3.377,2.542  c-2.077-0.873-3.457-2.896-3.457-5.169c0-2.261,1.342-4.287,3.42-5.175c0.029-0.007,0.058-0.006,0.086-0.019l0.19-0.09  c1.628-0.798,2.823-1.005,3.545-0.611c0.483,0.263,0.781,0.833,0.885,1.696c0.031,0.254,0.247,0.44,0.496,0.44  c0.02,0,0.04-0.001,0.06-0.003c0.274-0.033,0.47-0.282,0.437-0.556c-0.145-1.204-0.616-2.03-1.4-2.456  c-1.277-0.693-2.99-0.079-3.956,0.355c0.154-2.787,2.45-5.013,5.275-5.013c1.253,0,2.472,0.449,3.431,1.263  c0.187,0.159,0.461,0.159,0.648,0c0.957-0.814,2.174-1.263,3.429-1.263c2.799,0,5.073,2.186,5.267,4.936  c-0.969-0.435-2.677-1.043-3.948-0.352c-0.784,0.426-1.256,1.252-1.4,2.456c-0.033,0.274,0.162,0.523,0.437,0.556  c0.021,0.002,0.04,0.003,0.061,0.003c0.249,0,0.465-0.187,0.495-0.44c0.104-0.863,0.402-1.434,0.886-1.696  c0.723-0.391,1.916-0.187,3.546,0.612l0.114,0.055c0.043,0.039,0.074,0.088,0.13,0.112c2.097,0.88,3.452,2.918,3.452,5.191  C45.292,33.393,43.912,35.417,41.836,36.29z"/><path d="M54.875,22.5c0.276,0,0.5-0.224,0.5-0.5s-0.224-0.5-0.5-0.5h-3.25V19h3.25c0.276,0,0.5-0.224,0.5-0.5s-0.224-0.5-0.5-0.5  h-3.25v-1.125c0-1.93-1.57-3.5-3.5-3.5H47v-3.25c0-0.276-0.224-0.5-0.5-0.5s-0.5,0.224-0.5,0.5v3.25h-2.5v-3.25  c0-0.276-0.224-0.5-0.5-0.5s-0.5,0.224-0.5,0.5v3.25H40v-3.25c0-0.276-0.224-0.5-0.5-0.5s-0.5,0.224-0.5,0.5v3.25h-2.5v-3.25  c0-0.276-0.224-0.5-0.5-0.5s-0.5,0.224-0.5,0.5v3.25H33v-3.25c0-0.276-0.224-0.5-0.5-0.5s-0.5,0.224-0.5,0.5v3.25h-2.5v-3.25  c0-0.276-0.224-0.5-0.5-0.5s-0.5,0.224-0.5,0.5v3.25H26v-3.25c0-0.276-0.224-0.5-0.5-0.5s-0.5,0.224-0.5,0.5v3.25h-2.5v-3.25  c0-0.276-0.224-0.5-0.5-0.5s-0.5,0.224-0.5,0.5v3.25H19v-3.25c0-0.276-0.224-0.5-0.5-0.5s-0.5,0.224-0.5,0.5v3.25h-1.125  c-1.93,0-3.5,1.57-3.5,3.5V18h-3.25c-0.276,0-0.5,0.224-0.5,0.5s0.224,0.5,0.5,0.5h3.25v2.5h-3.25c-0.276,0-0.5,0.224-0.5,0.5  s0.224,0.5,0.5,0.5h3.25V25h-3.25c-0.276,0-0.5,0.224-0.5,0.5s0.224,0.5,0.5,0.5h3.25v2.5h-3.25c-0.276,0-0.5,0.224-0.5,0.5  s0.224,0.5,0.5,0.5h3.25V32h-3.25c-0.276,0-0.5,0.224-0.5,0.5s0.224,0.5,0.5,0.5h3.25v2.5h-3.25c-0.276,0-0.5,0.224-0.5,0.5  s0.224,0.5,0.5,0.5h3.25V39h-3.25c-0.276,0-0.5,0.224-0.5,0.5s0.224,0.5,0.5,0.5h3.25v2.5h-3.25c-0.276,0-0.5,0.224-0.5,0.5  s0.224,0.5,0.5,0.5h3.25V46h-3.25c-0.276,0-0.5,0.224-0.5,0.5s0.224,0.5,0.5,0.5h3.25v1.125c0,1.93,1.57,3.5,3.5,3.5H18v3.25  c0,0.276,0.224,0.5,0.5,0.5s0.5-0.224,0.5-0.5v-3.25h2.5v3.25c0,0.276,0.224,0.5,0.5,0.5s0.5-0.224,0.5-0.5v-3.25H25v3.25  c0,0.276,0.224,0.5,0.5,0.5s0.5-0.224,0.5-0.5v-3.25h2.5v3.25c0,0.276,0.224,0.5,0.5,0.5s0.5-0.224,0.5-0.5v-3.25H32v3.25  c0,0.276,0.224,0.5,0.5,0.5s0.5-0.224,0.5-0.5v-3.25h2.5v3.25c0,0.276,0.224,0.5,0.5,0.5s0.5-0.224,0.5-0.5v-3.25H39v3.25  c0,0.276,0.224,0.5,0.5,0.5s0.5-0.224,0.5-0.5v-3.25h2.5v3.25c0,0.276,0.224,0.5,0.5,0.5s0.5-0.224,0.5-0.5v-3.25H46v3.25  c0,0.276,0.224,0.5,0.5,0.5s0.5-0.224,0.5-0.5v-3.25h1.125c1.93,0,3.5-1.57,3.5-3.5V47h3.25c0.276,0,0.5-0.224,0.5-0.5  s-0.224-0.5-0.5-0.5h-3.25v-2.5h3.25c0.276,0,0.5-0.224,0.5-0.5s-0.224-0.5-0.5-0.5h-3.25V40h3.25c0.276,0,0.5-0.224,0.5-0.5  s-0.224-0.5-0.5-0.5h-3.25v-2.5h3.25c0.276,0,0.5-0.224,0.5-0.5s-0.224-0.5-0.5-0.5h-3.25V33h3.25c0.276,0,0.5-0.224,0.5-0.5  s-0.224-0.5-0.5-0.5h-3.25v-2.5h3.25c0.276,0,0.5-0.224,0.5-0.5s-0.224-0.5-0.5-0.5h-3.25V26h3.25c0.276,0,0.5-0.224,0.5-0.5  s-0.224-0.5-0.5-0.5h-3.25v-2.5H54.875z M50.625,48.125c0,1.379-1.121,2.5-2.5,2.5h-31.25c-1.378,0-2.5-1.121-2.5-2.5v-31.25  c0-1.378,1.122-2.5,2.5-2.5h31.25c1.379,0,2.5,1.122,2.5,2.5V48.125z"/><text x="7.5" y="72.5" fill="#000000" font-size="5px" font-weight="bold" font-family="'Helvetica Neue', Helvetica, Arial-Unicode, Arial, Sans-serif">Created by Mohamed Mbarki</text><text x="7.5" y="77.5" fill="#000000" font-size="5px" font-weight="bold" font-family="'Helvetica Neue', Helvetica, Arial-Unicode, Arial, Sans-serif">from the Noun Project</text></svg>